<svg xmlns="http://www.w3.org/2000/svg" xml:space="preserve" viewBox="0 0 746 746">
  <path fill="#f5f5f7" d="M200 712h-84q-27 0-40-26-3-7-3-15v-84q1-28 26-38l35-11q4-1 6 2 23 31 60 36l8 1-27-19q-33-26-41-68-5-36 9-69 8-22 22-40l76-121q31-50 64-99A308 308 0 0 1 491 45q71-14 137 16 8 3 12 8c9 8 7 20-3 26l-11 5q-23 9-30 33l-4 13q-9 26-36 33l-17 6q-10 3-11 14c-2 11-3 22-11 31q-8 7-18 12l-6 4q-15 6-17 23-6 46-16 91-4 22 11 40 12 11 26 20 12 7 16 20 4 20-9 33l-49 46q-31 29-69 51-33 21-71 28-20 4-41 1-4-1-6 4l-28 78q-10 28-40 31"/>
  <path fill="#f5f5f7" d="M615 347q-31 35-63 67-8 8-20 14-2 3-4-1-11-18-30-29-8-4-15-13-8-14-4-29l12-59q0-3 3-5 16-15 37-15 9 0 14-7c15-22 36-37 56-53q27-20 46-46 10-15 17-31l3-6c3-5 10-4 13 1q6 13 7 28c5 44-8 84-30 123q-18 31-42 61"/>
</svg>
